PathFileType	4	(X/Y/Z)	C:\Documents and Settings\user\My Documents\MotionFiles\BioEngCompLab_Data\Delaware\Subject 2\running_3001_smoothed.trc																																																																																																																									
DataRate	CameraRate	NumFrames	NumMarkers	Units	OrigDataRate	OrigDataStartFrame	OrigNumFrames																																																																																																																					
60	60	7	41	mm	60	451	600																																																																																																																					
Frame#	Time	R.ASIS			L.ASIS			V.Sacral			R.Thigh.Upper			R.Thigh.Front			R.Thigh.Rear			L.Thigh.Upper			L.Thigh.Front			L.Thigh.Rear			R.Shank.Upper			R.Shank.Front			R.Shank.Rear			L.Shank.Upper			L.Shank.Front			L.Shank.Rear			R.Heel			R.Midfoot.Sup			R.Midfoot.Lat			R.Toe.Tip			L.Heel			L.Midfoot.Sup			L.Midfoot.Lat			L.Toe.Tip			Sternum			R.Acromium			L.Acromium			R.Bicep			L.Bicep			R.Elbow			L.Elbow			R.Wrist.Med			R.Wrist.Lat			L.Wrist.Med			L.Wrist.Lat			R.Toe.Lat			R.Toe.Med			L.Toe.Lat			L.Toe.Med			R.Temple			L.Temple			Top.Head		
		X1	Y1	Z1	X2	Y2	Z2	X3	Y3	Z3	X4	Y4	Z4	X5	Y5	Z5	X6	Y6	Z6	X7	Y7	Z7	X8	Y8	Z8	X9	Y9	Z9	X10	Y10	Z10	X11	Y11	Z11	X12	Y12	Z12	X13	Y13	Z13	X14	Y14	Z14	X15	Y15	Z15	X16	Y16	Z16	X17	Y17	Z17	X18	Y18	Z18	X19	Y19	Z19	X20	Y20	Z20	X21	Y21	Z21	X22	Y22	Z22	X23	Y23	Z23	X24	Y24	Z24	X25	Y25	Z25	X26	Y26	Z26	X27	Y27	Z27	X28	Y28	Z28	X29	Y29	Z29	X30	Y30	Z30	X31	Y31	Z31	X32	Y32	Z32	X33	Y33	Z33	X34	Y34	Z34	X35	Y35	Z35	X36	Y36	Z36	X37	Y37	Z37	X38	Y38	Z38	X39	Y39	Z39	X40	Y40	Z40	X41	Y41	Z41

451	7.500000	832.682800	989.209110	-63.317190	835.359500	972.911440	-316.406280	638.353390	1005.031860	-204.755600	762.330690	675.522830	-30.994260	828.227600	621.939940	-100.921690	735.400700	578.575260	-44.699270	888.394900	704.977970	-372.528290	971.545230	669.723390	-296.719150	932.000240	582.458310	-361.182400	683.769960	388.312680	-70.877220	688.740050	312.476680	-132.476960	630.209170	323.668910	-73.321930	870.202210	466.311610	-353.403530	853.759770	373.553010	-298.447540	804.540770	442.242580	-349.274290	375.671480	105.446160	-154.513090	514.596680	72.770440	-202.445940	488.082670	66.049170	-100.333710	643.731990	41.802380	-177.853330	527.766050	333.029270	-255.543430	595.871700	210.252960	-210.986270	576.891600	210.805040	-310.681820	664.794680	109.116140	-243.192830	905.493470	1330.862300	-221.892320	828.147030	1419.723880	5.457180	772.714480	1451.832150	-401.903470	749.231510	1255.402710	103.135410	0.000000	0.000000	0.000000	722.152400	1173.950560	161.554050	571.783630	1210.182860	-477.703190	958.085940	1069.808230	155.149090	968.398990	1087.916750	96.424800	671.206790	968.265930	-465.312870	717.668330	993.200680	-417.272250	574.725040	37.446820	-96.003160	573.391360	26.079070	-211.231960	606.079830	146.283430	-324.372680	610.339780	138.611150	-210.782350	972.167600	1561.897580	-139.569560	979.854920	1567.956910	-281.420990	1039.619870	1645.743650	-219.556790	
452	7.517000	835.711910	994.373900	-62.678610	838.129820	985.342410	-315.842350	641.960750	1015.687870	-205.612050	736.201350	683.714170	-31.471480	796.183650	622.239560	-100.649190	698.096250	590.522640	-44.288980	901.214780	724.325740	-373.442080	985.744870	694.638490	-296.658970	950.964840	604.104800	-359.447170	629.458370	402.411220	-68.470650	634.772950	324.815610	-127.728240	575.166560	338.130680	-70.409290	899.387940	475.410520	-351.567200	895.416200	382.116580	-295.089780	837.496890	441.822140	-347.641170	323.991880	124.572630	-151.873180	456.835210	79.329280	-200.612660	430.567900	73.392220	-98.764710	578.117860	40.565900	-178.723390	581.193660	289.383610	-252.557340	670.943660	183.660130	-206.480500	653.566280	179.525700	-306.025700	760.047000	99.111150	-238.478210	905.188540	1342.918820	-227.370240	836.459590	1432.809570	2.795800	764.868770	1463.805790	-400.206360	767.347050	1264.259890	102.463020	0.000000	0.000000	0.000000	743.967710	1181.584230	160.431430	550.057500	1236.493770	-471.643370	987.074890	1102.157230	135.911540	991.287170	1122.424560	77.365980	642.823610	992.367800	-468.352570	693.460940	1015.305970	-423.308930	511.651210	37.424340	-95.979250	509.384700	28.333200	-211.928040	694.678890	121.801450	-319.298430	698.727110	116.272190	-205.510800	971.186040	1572.880620	-143.710530	977.752500	1578.600340	-285.761470	1037.290530	1656.988400	-224.583020	
453	7.533000	840.157780	1000.109680	-62.681040	841.357850	998.042540	-315.520110	646.684330	1026.734860	-206.302780	712.468140	695.148800	-31.989170	766.500180	626.653260	-100.132390	663.578740	607.480960	-44.468130	910.107180	741.485230	-373.473970	996.736150	716.071900	-296.907070	964.982300	623.115230	-357.237640	578.881470	423.286530	-66.564220	585.465700	343.345150	-122.651780	524.469420	358.756470	-67.579030	922.853820	482.155700	-349.127560	933.062320	390.129760	-292.544130	866.317140	439.198550	-345.040560	277.968840	149.197070	-148.558030	402.580290	89.207120	-198.725040	376.580110	84.491210	-97.013470	513.942140	40.704500	-179.994000	640.573180	244.452640	-248.837630	748.883300	160.344530	-201.868610	732.745120	151.425140	-300.985750	853.959660	94.486860	-233.820710	905.560240	1355.690430	-232.542660	844.570860	1446.544190	-0.216380	758.742740	1475.926270	-398.030000	783.843930	1274.104490	100.855090	0.000000	0.000000	0.000000	763.413090	1190.064330	157.980100	532.478390	1262.754390	-465.087920	1009.764650	1135.478880	115.517760	1007.810490	1157.153690	57.596970	618.157350	1016.533570	-470.478760	672.558350	1037.302610	-428.540800	450.312260	39.407920	-96.153360	446.903530	33.578430	-212.550060	784.131530	102.446500	-313.947020	789.018550	99.894290	-200.413820	970.508240	1584.332890	-147.795610	975.890750	1589.703980	-290.122710	1034.923950	1668.808960	-229.608690	
454	7.550000	845.541690	1005.762270	-63.376980	844.518620	1009.670780	-315.509490	652.003970	1037.169430	-206.585740	692.711180	708.084900	-32.653710	741.049560	633.800660	-99.814590	634.021120	626.988160	-45.405250	914.948300	754.549500	-372.671720	1004.204160	732.080570	-297.269500	973.759280	637.431760	-354.564240	534.988770	448.027620	-65.640660	542.883060	365.489930	-118.358090	480.583830	383.157990	-65.443520	940.754150	485.359500	-346.096440	966.267460	396.613490	-290.783020	891.623960	433.572630	-341.772130	237.880840	179.031650	-144.684690	352.031890	103.357570	-197.061250	326.426730	100.085560	-95.265730	451.640440	43.160870	-181.641190	704.697390	200.530320	-244.725950	827.449220	141.441450	-197.541140	812.121890	127.644650	-296.006810	943.343990	94.991810	-229.508940	906.646970	1368.175050	-237.413560	852.186220	1459.485230	-3.600880	754.226140	1487.182500	-395.596100	798.266780	1283.413820	98.548610	0.000000	0.000000	0.000000	780.162050	1197.823120	154.597030	518.710270	1287.224490	-458.595060	1026.250610	1167.284060	95.032290	1018.415530	1189.762080	38.319880	597.530880	1039.137820	-472.126100	654.907780	1057.657350	-432.868070	391.089420	44.858490	-96.642210	386.577330	43.148550	-213.109860	871.659420	88.807010	-308.771670	878.407350	90.311880	-195.873980	970.128420	1595.196900	-151.723460	974.290530	1600.249020	-294.386750	1032.636230	1680.127560	-234.494830	
455	7.567000	851.250490	1010.698120	-64.669960	847.204710	1019.091250	-315.855680	657.334780	1045.981810	-206.390060	678.224120	720.332760	-33.569660	721.454900	641.732850	-100.088980	611.644960	645.588380	-46.862380	916.239810	762.381590	-371.319490	1007.601320	741.339720	-297.215760	976.926150	645.733890	-351.552310	500.403470	472.472990	-65.675740	508.392850	387.719570	-115.771360	445.452510	407.938200	-64.264010	953.696470	484.391850	-342.573000	994.525150	401.079620	-289.429810	913.939390	424.915440	-338.180790	203.861510	213.333650	-140.493420	305.368650	122.481260	-195.842180	280.338410	120.638860	-93.710900	391.884060	49.013220	-183.503800	770.732850	159.959440	-240.560150	903.401670	127.359710	-193.747450	888.440490	108.705650	-291.434970	1024.898680	99.524380	-225.694090	908.333190	1379.424440	-242.052460	859.168210	1470.328980	-7.235430	751.105530	1496.750370	-393.113680	810.314210	1290.831420	95.751660	0.000000	0.000000	0.000000	793.915590	1203.600950	150.556590	508.290310	1308.358520	-452.799710	1037.101810	1195.125000	75.445920	1023.967830	1218.008300	20.435560	581.321410	1058.770630	-473.724120	640.645690	1075.184810	-436.269560	334.552060	55.183620	-97.478900	329.289830	58.136320	-213.627580	953.864990	80.579680	-304.101100	963.266850	87.164210	-192.060350	970.042720	1604.524290	-155.418460	972.984250	1609.314940	-298.436460	1030.573850	1689.958370	-239.113830	
456	7.583000	856.668400	1014.403440	-66.371690	849.162350	1025.527340	-316.582000	662.096500	1052.277830	-205.790330	669.752140	729.745910	-34.789020	708.836910	648.369380	-101.123730	598.165650	659.739010	-48.263390	914.951600	764.835750	-369.813750	1006.694700	743.498900	-296.130220	974.728090	647.798580	-348.480800	476.815000	492.552190	-66.162520	482.457700	406.614320	-115.123120	420.047790	429.802090	-63.826460	962.537660	479.377040	-338.765080	1017.447080	403.453550	-287.932680	933.325130	413.960140	-334.574160	176.052460	251.001600	-136.316360	262.956880	146.766540	-195.136320	238.633240	146.210770	-92.466210	335.633610	59.171130	-185.280650	834.354610	124.845010	-236.622040	972.673100	117.691930	-190.555600	957.718440	94.504220	-287.479160	1095.407470	106.353750	-222.398070	910.377690	1388.559690	-246.489470	865.516360	1478.043820	-10.810970	749.246950	1503.952390	-390.828700	819.734310	1295.456790	92.569020	0.000000	0.000000	0.000000	804.386960	1206.620610	145.970700	500.916900	1324.828250	-448.356380	1043.242920	1216.591310	57.637040	1025.691650	1239.762820	4.548830	569.841670	1074.148440	-475.609340	630.125850	1088.860600	-438.914280	281.534390	71.393180	-98.536500	276.172150	79.063800	-214.070310	1026.958370	76.694280	-300.115360	1039.335690	88.854070	-188.941480	970.256290	1611.541380	-158.829190	972.024110	1616.146120	-302.164180	1028.900390	1697.478150	-243.348420	
457	7.600000	861.287540	1016.515990	-68.268960	850.288570	1028.634890	-317.677060	665.791930	1055.396480	-204.941620	667.288570	734.707280	-36.264030	703.595520	651.964540	-102.740190	593.948790	666.931270	-49.119840	912.336670	762.759460	-368.429050	1002.209230	739.565370	-293.619900	968.642520	644.633850	-345.648350	464.483550	505.683750	-66.545730	464.716130	419.933440	-115.857520	404.227170	446.710850	-63.698970	968.153500	471.356260	-334.935090	1034.838750	403.889890	-285.869290	949.368530	401.970370	-331.183750	154.758680	290.689120	-132.511640	225.535570	175.706530	-194.801160	201.923830	176.364550	-91.509110	284.144620	74.082730	-186.565000	890.263370	96.753330	-233.115830	1030.788570	111.317040	-187.869980	1015.700070	84.410680	-284.210080	1151.992680	113.457320	-219.547790	912.497620	1394.794070	-250.675030	871.221560	1481.941770	-13.903810	748.594730	1508.239870	-389.088170	826.320740	1296.928340	89.034540	0.000000	0.000000	0.000000	811.326540	1206.624880	140.846680	496.479220	1335.544070	-445.873720	1045.833620	1229.527340	42.299770	1025.072020	1253.121950	-8.978190	563.296330	1084.165770	-478.014680	623.750790	1097.770020	-441.130830	233.200730	93.803650	-99.494960	228.571660	105.658870	-214.295180	1087.148560	75.578470	-296.856230	1102.145140	92.831180	-186.344470	970.776310	1615.687870	-161.923860	971.475770	1620.193240	-305.482820	1027.770020	1702.077030	-247.094330	
